<svg width="24" height="24" viewBox="0 0 25 24" fill="none" xmlns="http://www.w3.org/2000/svg">
<path d="M21.5 5.97998C18.17 5.64998 14.82 5.47998 11.48 5.47998C9.5 5.47998 7.52 5.57998 5.54 5.77998L3.5 5.97998" stroke="currentColor" stroke-width="1.5" stroke-linecap="round" stroke-linejoin="round"/>
<path d="M9 4.97L9.22 3.66C9.38 2.71 9.5 2 11.19 2H13.81C15.5 2 15.63 2.75 15.78 3.67L16 4.97" stroke="currentColor" stroke-width="1.5" stroke-linecap="round" stroke-linejoin="round"/>
<path d="M19.35 9.14014L18.7 19.2101C18.59 20.7801 18.5 22.0001 15.71 22.0001H9.29C6.5 22.0001 6.41 20.7801 6.3 19.2101L5.65 9.14014" stroke="currentColor" stroke-width="1.5" stroke-linecap="round" stroke-linejoin="round"/>
<path d="M10.83 16.5H14.16" stroke="currentColor" stroke-width="1.5" stroke-linecap="round" stroke-linejoin="round"/>
<path d="M10 12.5H15" stroke="currentColor" stroke-width="1.5" stroke-linecap="round" stroke-linejoin="round"/>
</svg>
